<svg width="24" height="24" xmlns="http://www.w3.org/2000/svg" version="1.1">

 <g>
  <title>Layer 1</title>
  <g id="svg_1">
   <path id="svg_2" fill="#27ae60" d="m23.10294,12.55515c0,6.13215 -4.97079,11.10294 -11.10294,11.10294c-6.13193,0 -11.10294,-4.97079 -11.10294,-11.10294c0,-6.13193 4.97101,-11.10294 11.10294,-11.10294c6.13215,0 11.10294,4.97101 11.10294,11.10294z"/>
   <path id="svg_3" fill="#2ecc71" d="m23.10294,11.44485c0,6.13215 -4.97079,11.10294 -11.10294,11.10294c-6.13193,0 -11.10294,-4.97079 -11.10294,-11.10294c0,-6.13193 4.97101,-11.10294 11.10294,-11.10294c6.13215,0 11.10294,4.97101 11.10294,11.10294z"/>
   <path id="svg_4" fill="#27ae60" d="m16.44117,8.11394l-6.66176,6.66176l-2.77574,-2.77574l-2.35937,2.33162l2.77574,2.77574l2.22059,2.22059l0.13879,0.11103l9.02114,-8.99338l-2.35937,-2.33162z"/>
   <path id="svg_5" fill="#ecf0f1" d="m16.44117,7.00365l-6.66176,6.66176l-2.77574,-2.77574l-2.35937,2.33162l2.77574,2.77574l2.22059,2.22059l0.13879,0.11103l9.02114,-8.99338l-2.35937,-2.33162z"/>
  </g>
 </g>
</svg>