<svg width="400" height="230" xmlns="http://www.w3.org/2000/svg" version="1.1">
 <g>
  <title>Layer 1</title>
  <g id="svg_22">
   <path d="m231.22638,73.26093l35.77551,0l0,36.57155l18.08927,0c8.35335,0 16.9455,-1.48818 24.85643,-4.16872c3.88717,-1.31806 8.25028,-3.15229 12.08466,-5.45912c-5.05022,-6.59369 -7.62855,-14.91939 -8.38771,-23.1261c-1.03065,-11.16209 1.22087,-25.691 8.77566,-34.42728l3.76065,-4.34969l4.48126,3.60227c11.28275,9.06475 20.7715,21.73093 22.444,36.17017c13.5854,-3.9961 29.53543,-3.05091 41.51032,3.86036l4.9128,2.83473l-2.58587,5.04685c-10.12724,19.76515 -31.29927,25.88792 -51.99871,24.80447c-30.97415,77.14674 -98.40843,113.67053 -180.17216,113.67053c-42.24184,0 -80.99787,-15.79083 -103.06733,-53.26902l-0.362,-0.61169l-3.21514,-6.54174c-7.4601,-16.49721 -9.93788,-34.56972 -8.25697,-52.62716l0.50444,-5.40885l30.59205,0l0,-36.57155l35.77468,0l0,-35.77635l71.55269,0l0,-35.77551l42.93146,0l0,71.55186" fill="#364548" id="svg_3"/>
   <path d="m347.13417,86.79018c2.399,-18.64232 -11.55257,-33.28602 -20.20505,-40.23834c-9.97056,11.52742 -11.5199,41.73908 4.12263,54.45888c-8.72959,7.75423 -27.12555,14.78279 -45.96059,14.78279l-229.28085,0c-1.83173,19.66208 1.62056,37.76812 9.50383,53.26652l2.60848,4.77035c1.65157,2.80288 3.45563,5.50773 5.4055,8.11202l0.00083,0c9.4259,0.60499 18.11693,0.81447 26.06808,0.6385l0.00335,0c15.62575,-0.34607 28.37489,-2.18952 38.03793,-5.5379c1.43872,-0.50024 3.00649,0.26311 3.50423,1.70016c0.49689,1.43706 -0.26396,3.00568 -1.70101,3.50424c-1.28455,0.44493 -2.6244,0.86139 -4.00783,1.25689c-0.00167,0.00084 -0.00335,0.00084 -0.00502,0.00169c-7.60843,2.17191 -15.76653,3.6341 -26.29347,4.2835c0.62427,0.01006 -0.65107,0.09386 -0.65442,0.09469c-0.3578,0.02179 -0.8086,0.07291 -1.16808,0.09301c-4.14273,0.2321 -8.61478,0.2807 -13.18655,0.2807c-4.99993,0 -9.92447,-0.09467 -15.42968,-0.37371l-0.14076,0.09301c19.10401,21.47201 48.97462,34.35018 86.41678,34.35018c79.24323,0 146.45796,-35.12778 176.22131,-113.99144c21.11673,2.16689 41.41061,-3.21766 50.64211,-21.23823c-14.70487,-8.48573 -33.61366,-5.78006 -44.50175,-0.30752" fill="#22A0C8" id="svg_4"/>
   <path d="m347.13417,86.79018c2.399,-18.64232 -11.55257,-33.28602 -20.20505,-40.23834c-9.97056,11.52742 -11.5199,41.73908 4.12263,54.45888c-8.72959,7.75423 -27.12555,14.78279 -45.96059,14.78279l-215.70383,0c-0.93598,30.11193 10.23868,52.96905 30.0097,66.78739l0.00335,0c15.62575,-0.34607 28.37489,-2.18952 38.03793,-5.5379c1.43872,-0.50024 3.00649,0.26311 3.50423,1.70016c0.49689,1.43706 -0.26396,3.00568 -1.70101,3.50424c-1.28455,0.44493 -2.6244,0.86139 -4.00783,1.25689c-0.00167,0.00084 -0.00335,0.00084 -0.00502,0.00169c-7.60843,2.17191 -16.46789,3.82181 -26.99483,4.4712c-0.0025,0 -0.25473,-0.24384 -0.25808,-0.24299c26.96801,13.83342 66.07262,13.78398 110.90534,-3.43805c50.2709,-19.31182 97.04847,-56.10541 129.68843,-98.18804c-0.4927,0.22204 -0.97199,0.44997 -1.43537,0.68208" fill="#37B1D9" id="svg_5"/>
   <path d="m56.23934,139.68297c1.42531,10.53196 4.50556,20.3936 9.07481,29.37707l2.60848,4.77035c1.65157,2.80288 3.45563,5.50773 5.40633,8.11202c9.42757,0.60499 18.11945,0.81447 26.07143,0.6385c15.62575,-0.34607 28.37489,-2.18952 38.03793,-5.5379c1.43872,-0.50024 3.00649,0.26311 3.50423,1.70016c0.49689,1.43706 -0.26396,3.00568 -1.70101,3.50424c-1.28455,0.44493 -2.6244,0.86139 -4.00783,1.25689c-0.00167,0.00084 -0.00335,0.00084 -0.00502,0.00169c-7.60843,2.17191 -16.42095,3.72795 -26.94789,4.37819c-0.36115,0.02179 -0.99128,0.02597 -1.35578,0.04609c-4.14106,0.23295 -8.56701,0.37454 -13.13961,0.37454c-4.9991,0 -10.11133,-0.09552 -15.61571,-0.37454c19.10318,21.47201 49.16065,34.3971 86.60281,34.3971c67.83981,0 126.86208,-25.74964 161.11842,-82.6444l-269.65158,0" fill="#1B81A5" id="svg_6"/>
   <path d="m71.45115,139.68297c4.0556,18.49232 13.80158,33.01034 27.94923,42.89793c15.62575,-0.34607 28.37489,-2.18952 38.03793,-5.5379c1.43872,-0.50024 3.00649,0.26311 3.50423,1.70016c0.49689,1.43706 -0.26396,3.00568 -1.70101,3.50424c-1.28455,0.44493 -2.6244,0.86139 -4.00783,1.25689c-0.00167,0.00084 -0.00335,0.00084 -0.00502,0.00169c-7.60843,2.17191 -16.60781,3.72795 -27.13476,4.37819c26.96633,13.8309 65.95783,13.63233 110.7872,-3.58803c27.12051,-10.41969 53.2221,-25.93148 76.63979,-44.61318l-224.06976,0" fill="#1D91B4" id="svg_7"/>
   <path d="m86.93027,79.22281l31.00516,0l0,31.00684l-31.00516,0l0,-31.00684zm2.58251,2.58418l2.44676,0l0,25.84015l-2.44676,0l0,-25.84015zm4.60025,0l2.54481,0l0,25.84015l-2.54481,0l0,-25.84015zm4.69662,0l2.5448,0l0,25.84015l-2.5448,0l0,-25.84015zm4.69911,0l2.5448,0l0,25.84015l-2.5448,0l0,-25.84015zm4.6983,0l2.5448,0l0,25.84015l-2.5448,0l0,-25.84015zm4.69744,0l2.44844,0l0,25.84015l-2.44844,0l0,-25.84015z" fill="#23A3C2" id="svg_8"/>
   <path d="m122.70411,43.4473l31.00853,0l0,31.00516l-31.00853,0l0,-31.00516zm2.58587,2.58418l2.44507,0l0,25.83765l-2.44507,0l0,-25.83765zm4.60025,0l2.54313,0l0,25.83765l-2.54313,0l0,-25.83765zm4.69576,0l2.5448,0l0,25.83765l-2.5448,0l0,-25.83765zm4.69828,0l2.54481,0l0,25.83765l-2.54481,0l0,-25.83765zm4.69913,0l2.5448,0l0,25.83765l-2.5448,0l0,-25.83765zm4.69661,0l2.45013,0l0,25.83765l-2.45013,0l0,-25.83765z" fill="#23A3C2" id="svg_9"/>
   <path d="m122.70411,79.22281l31.00853,0l0,31.00684l-31.00853,0l0,-31.00684zm2.58587,2.58418l2.44507,0l0,25.84015l-2.44507,0l0,-25.84015zm4.60025,0l2.54313,0l0,25.84015l-2.54313,0l0,-25.84015zm4.69576,0l2.5448,0l0,25.84015l-2.5448,0l0,-25.84015zm4.69828,0l2.54481,0l0,25.84015l-2.54481,0l0,-25.84015zm4.69913,0l2.5448,0l0,25.84015l-2.5448,0l0,-25.84015zm4.69661,0l2.45013,0l0,25.84015l-2.45013,0l0,-25.84015z" fill="#34BBDE" id="svg_10"/>
   <path d="m158.48131,79.22281l31.00684,0l0,31.00684l-31.00684,0l0,-31.00684zm2.58418,2.58418l2.44509,0l0,25.84015l-2.44509,0l0,-25.84015zm4.5994,0l2.5448,0l0,25.84015l-2.5448,0l0,-25.84015zm4.69828,0l2.54481,0l0,25.84015l-2.54481,0l0,-25.84015zm4.6983,0l2.5448,0l0,25.84015l-2.5448,0l0,-25.84015zm4.69744,0l2.54647,0l0,25.84015l-2.54647,0l0,-25.84015zm4.6983,0l2.44676,0l0,25.84015l-2.44676,0l0,-25.84015z" fill="#23A3C2" id="svg_11"/>
   <path d="m158.48131,43.4473l31.00684,0l0,31.00516l-31.00684,0l0,-31.00516zm2.58418,2.58418l2.44509,0l0,25.83765l-2.44509,0l0,-25.83765zm4.5994,0l2.5448,0l0,25.83765l-2.5448,0l0,-25.83765zm4.69828,0l2.54481,0l0,25.83765l-2.54481,0l0,-25.83765zm4.6983,0l2.5448,0l0,25.83765l-2.5448,0l0,-25.83765zm4.69744,0l2.54647,0l0,25.83765l-2.54647,0l0,-25.83765zm4.6983,0l2.44676,0l0,25.83765l-2.44676,0l0,-25.83765z" fill="#34BBDE" id="svg_12"/>
   <path d="m194.25765,79.22281l31.00601,0l0,31.00684l-31.00601,0l0,-31.00684zm2.58418,2.58418l2.44593,0l0,25.84015l-2.44593,0l0,-25.84015zm4.60026,0l2.5448,0l0,25.84015l-2.5448,0l0,-25.84015zm4.69661,0l2.5448,0l0,25.84015l-2.5448,0l0,-25.84015zm4.69911,0l2.5448,0l0,25.84015l-2.5448,0l0,-25.84015zm4.6983,0l2.5448,0l0,25.84015l-2.5448,0l0,-25.84015zm4.69744,0l2.44761,0l0,25.84015l-2.44761,0l0,-25.84015z" fill="#34BBDE" id="svg_13"/>
   <path d="m194.25765,43.4473l31.00601,0l0,31.00516l-31.00601,0l0,-31.00516zm2.58418,2.58418l2.44593,0l0,25.83765l-2.44593,0l0,-25.83765zm4.60026,0l2.5448,0l0,25.83765l-2.5448,0l0,-25.83765zm4.69661,0l2.5448,0l0,25.83765l-2.5448,0l0,-25.83765zm4.69911,0l2.5448,0l0,25.83765l-2.5448,0l0,-25.83765zm4.6983,0l2.5448,0l0,25.83765l-2.5448,0l0,-25.83765zm4.69744,0l2.44761,0l0,25.83765l-2.44761,0l0,-25.83765z" fill="#23A3C2" id="svg_14"/>
   <path d="m194.25765,7.67094l31.00601,0l0,31.00685l-31.00601,0l0,-31.00685zm2.58418,2.58251l2.44593,0l0,25.84015l-2.44593,0l0,-25.84015zm4.60026,0l2.5448,0l0,25.84015l-2.5448,0l0,-25.84015zm4.69661,0l2.5448,0l0,25.84015l-2.5448,0l0,-25.84015zm4.69911,0l2.5448,0l0,25.84015l-2.5448,0l0,-25.84015zm4.6983,0l2.5448,0l0,25.84015l-2.5448,0l0,-25.84015zm4.69744,0l2.44761,0l0,25.84015l-2.44761,0l0,-25.84015z" fill="#34BBDE" id="svg_15"/>
   <path d="m230.03316,79.22281l31.00685,0l0,31.00684l-31.00685,0l0,-31.00684zm2.58251,2.58418l2.44844,0l0,25.84015l-2.44844,0l0,-25.84015zm4.60026,0l2.5448,0l0,25.84015l-2.5448,0l0,-25.84015zm4.69911,0l2.5448,0l0,25.84015l-2.5448,0l0,-25.84015zm4.69661,0l2.54481,0l0,25.84015l-2.54481,0l0,-25.84015zm4.69997,0l2.54395,0l0,25.84015l-2.54395,0l0,-25.84015zm4.69744,0l2.44676,0l0,25.84015l-2.44676,0l0,-25.84015z" fill="#23A3C2" id="svg_16"/>
   <path d="m151.77114,160.50055c4.72342,0 8.55277,3.83104 8.55277,8.55445c0,4.72342 -3.82935,8.55277 -8.55277,8.55277c-4.72425,0 -8.55445,-3.82935 -8.55445,-8.55277c0,-4.72341 3.83019,-8.55445 8.55445,-8.55445" fill="#D3ECEC" id="svg_17"/>
   <path d="m151.77114,162.9272c0.78263,0 1.52923,0.14748 2.21801,0.41477c-0.7466,0.43154 -1.25186,1.24015 -1.25186,2.16522c0,1.38091 1.11947,2.49872 2.50038,2.49872c0.94604,0 1.76805,-0.52538 2.19288,-1.30132c0.29998,0.72315 0.46673,1.5175 0.46673,2.3504c0,3.38274 -2.74256,6.12529 -6.12613,6.12529c-3.38272,0 -6.12696,-2.74255 -6.12696,-6.12529c0,-3.3844 2.74424,-6.12779 6.12696,-6.12779" fill="#364548" id="svg_18"/>
   <path d="m0.47076,142.77493l397.91469,0c-8.66422,-2.19789 -27.41294,-5.16668 -24.32098,-16.5215c-15.75395,18.23005 -53.74749,12.78936 -63.33593,3.80003c-10.67778,15.48666 -72.83809,9.60018 -77.17356,-2.46436c-13.38595,15.70955 -54.86528,15.70955 -68.25208,0c-4.33715,12.06454 -66.49662,17.95103 -77.17523,2.46436c-9.58844,8.98934 -47.57861,14.43003 -63.33426,-3.80003c3.09198,11.35482 -15.65676,14.32362 -24.32265,16.5215" fill="#364548" id="svg_19"/>
   <path d="m174.51011,222.14218c-21.18377,-10.05267 -32.81175,-23.71766 -39.28143,-38.6362c-7.86818,2.24648 -17.32759,3.68187 -28.31791,4.29858c-4.14023,0.2321 -8.49496,0.35109 -13.06589,0.35109c-5.26891,0 -10.82105,-0.15585 -16.64971,-0.46504c19.42663,19.41488 43.32612,34.36359 87.57732,34.63675c3.26709,0 6.51073,-0.06368 9.73761,-0.18518" fill="#BDD9D7" id="svg_20"/>
   <path d="m143.0977,197.27152c-2.93109,-3.9785 -5.77419,-8.97843 -7.864,-13.76722c-7.86985,2.24734 -17.33094,3.68356 -28.32293,4.30027c7.54977,4.09833 18.34819,7.89584 36.18693,9.46695" fill="#D3ECEC" id="svg_21"/>
  </g>
 </g>

</svg>