<svg width="400" height="400" xmlns="http://www.w3.org/2000/svg" version="1.1">

 <g>
  <title>Layer 1</title>
  <g id="svg_1">
   <path id="svg_2" fill="#bdc3c7" d="m3.00002,101.49979l0,17.90909l0,17.90909l0,35.81818l0,17.90909l0,17.90909l0,17.90909l0,17.90909l0,35.81818l0,17.90909l0,35.81818l0,17.90909c0,19.7 16.0358,35.81818 35.81818,35.81818l161.18181,0l161.18181,0c19.78954,0 35.81818,-16.11818 35.81818,-35.81818l0,-17.90909l0,-35.81818l0,-71.63636l0,-35.81818l0,-53.72727l0,-17.90909l0,-17.90909l-393.99998,0z"/>
   <path id="svg_3" fill="#bdc3c7" d="m38.8182,11.95477c-19.78238,0 -35.81818,16.0358 -35.81818,35.81818l0,53.72727l393.99998,0l0,-53.72727c0,-19.78238 -16.02864,-35.81818 -35.81818,-35.81818l-161.18181,0l-161.18181,0z"/>
   <path id="svg_4" fill="#ecf0f1" d="m3.00002,83.59113l0,17.90909l0,17.90909l0,35.81818l0,17.90909l0,17.90909l0,17.90909l0,17.90909l0,35.81818l0,17.90909l0,35.81818l0,17.90909c0,19.78954 16.0358,35.81818 35.81818,35.81818l161.18181,0l161.18181,0c19.78954,0 35.81818,-16.02864 35.81818,-35.81818l0,-17.90909l0,-35.81818l0,-71.63636l0,-35.81818l0,-53.72727l0,-17.90909l0,-17.90909l-393.99998,0z"/>
   <path id="svg_5" fill="#c0392b" d="m56.72729,47.77295a17.90909,17.90909 0 1 1 -35.81818,0a17.90909,17.90909 0 1 1 35.81818,0z"/>
   <path id="svg_6" fill="#27ae60" d="m110.45456,47.77295a17.90909,17.90909 0 1 1 -35.81818,0a17.90909,17.90909 0 1 1 35.81818,0z"/>
   <path id="svg_7" fill="#f39c12" d="m164.18183,47.77295a17.90909,17.90909 0 1 1 -35.81818,0a17.90909,17.90909 0 1 1 35.81818,0z"/>
   <path id="svg_8" fill="#bdc3c7" d="m38.8182,119.40888l0,17.90909l0,179.0909l0,17.90909l17.90909,0l35.81818,0l35.81818,0l0,-214.90908l-35.81818,0l-35.81818,0l-17.90909,0zm107.45454,0l0,17.90909l0,35.81818l214.90908,0l0,-35.81818l0,-17.90909l-17.90909,0l-179.0909,0l-17.90909,0zm0,71.63636l0,143.27272l17.90909,0l179.0909,0l17.90909,0l0,-17.90909l0,-107.45454l0,-17.90909l-17.90909,0l-179.0909,0l-17.90909,0z"/>
  </g>
 </g>
</svg>