<svg width="400" height="400" xmlns="http://www.w3.org/2000/svg">
 <g>
  <title>Layer 1</title>
  <g id="svg_3">
   <path d="m367.42207,176.77669a49.78575,49.78575 0 0 0 -79.22571,-4.29457a52.20526,52.20526 0 0 0 -8.43395,12.16499a63.48106,63.48106 0 0 0 -5.08326,13.43707l-30.61919,0a12.35199,12.35199 0 0 1 -1.45527,-3.64708c-4.16609,-16.35907 -14.37588,-28.05593 -29.85975,-34.50287c-29.80887,-12.41432 -62.16445,4.05287 -70.50045,35.44676c-0.547,2.06205 -0.13993,4.39634 -3.62927,4.87592c-14.45093,1.987 -30.76293,-6.28158 -37.61186,-19.47314c-4.61769,-8.89444 -4.37344,-9.66788 5.55267,-10.91452c41.20297,-5.17486 74.84972,-47.01132 60.60741,-95.5288c-10.31918,-35.15164 -48.84313,-57.96528 -84.92721,-50.49048c-34.01566,7.0461 -58.0327,35.4086 -59.81235,70.63402c-1.63591,32.4052 20.77703,63.37803 53.32216,73.00519c4.9039,1.45018 6.01189,3.62036 5.98772,8.3271c-0.16792,32.85424 -0.31802,65.71358 0.04071,98.56528c0.33329,30.38511 22.62156,55.12089 52.48639,58.32528c5.62772,0.60297 7.53077,2.58997 8.94278,7.81317c5.56284,20.59894 24.06156,35.25086 45.6044,36.88423a51.25755,51.25755 0 0 0 50.32894,-28.95275c13.16612,-28.22384 0.12466,-60.45476 -28.78356,-71.13522c-28.63345,-10.57869 -59.79327,5.8198 -67.69677,36.0421c-1.35351,5.17104 -3.62418,5.48906 -7.94674,4.77288c-22.18905,-3.67252 -37.59659,-21.35202 -38.2161,-44.41626c-0.24933,-9.26081 -0.05979,-18.53306 -0.06233,-27.80023c-0.00381,-14.67991 0,-29.36236 0,-45.73542c7.14533,5.47762 13.16231,9.59918 20.23767,11.99834a60.44076,60.44076 0 0 0 21.79979,2.76679c3.55295,-0.1234 3.25655,2.54927 3.81372,4.64313c3.81245,14.31482 11.84824,25.47995 24.79938,32.83771a51.42292,51.42292 0 0 0 75.46541,-31.72972a11.59509,11.59509 0 0 1 1.47563,-3.56949l31.13057,0a27.47077,27.47077 0 0 0 1.05584,4.96369c6.43041,23.15202 27.66158,37.9108 51.93813,37.08648c19.47568,-0.66148 41.42304,-12.92443 48.13458,-40.32777a50.2259,50.2259 0 0 0 -8.8601,-42.07307l0,0.00127l0.00001,-0.00001zm-174.69854,112.34837a36.55221,36.55221 0 0 1 36.90076,36.84098a36.95418,36.95418 0 1 1 -36.90076,-36.84098zm-155.08038,-192.90213a58.97659,58.97659 0 0 1 117.95064,0.20608a58.97659,58.97659 0 1 1 -117.95064,-0.20608zm154.82723,148.17929a36.81044,36.81044 0 1 1 37.14627,-36.62344a36.76973,36.76973 0 0 1 -37.14627,36.62344zm117.09834,-3.64453a37.08521,37.08521 0 1 1 16.34508,3.64199c-0.34347,0 -0.68439,-0.01399 -1.02658,-0.02289a39.3966,39.3966 0 0 1 -15.3185,-3.62036l0,0.00127l0,-0.00001z" fill="#2671e5" id="svg_1"/>
   <path d="m126.9489,84.12409q-18.16416,-11.9869 -36.83206,-23.20545c-10.97686,-6.62886 -22.79584,0.06233 -23.10495,12.90407c-0.18318,7.5702 -0.03435,15.14804 -0.02544,22.72206c0.01018,7.78519 -0.13739,15.57292 0.04325,23.35301c0.28113,12.07212 11.86604,19.00119 22.21577,12.97531q19.07497,-11.10533 37.56479,-23.20672c10.25813,-6.709 10.28357,-18.84855 0.13993,-25.54355l-0.00127,0.00127zm-10.08258,14.42549q-15.85277,9.79763 -31.69028,19.61561c-1.83181,1.1347 -3.24764,1.24538 -3.25273,-1.47563c-0.02289,-14.04132 -0.01018,-28.08137 -0.01018,-43.45202c12.38252,7.7801 23.71683,14.89108 35.03587,22.02622c1.71351,1.08127 1.66389,2.20708 -0.08269,3.28707l0,-0.00127l0,0.00002zm60.88981,234.61266c4.48157,-0.29258 7.21402,-2.82404 7.38575,-7.02956a6.61613,6.61613 0 0 0 -6.83367,-7.35013c-4.69019,-0.17936 -7.50533,2.43478 -7.57274,7.18858c-0.06488,4.54135 2.81386,6.63649 7.02066,7.19112zm30.01494,-0.08905c4.33401,-0.64114 7.11098,-2.96651 6.87946,-7.49896c-0.22644,-4.4574 -3.05301,-6.99267 -7.50024,-6.78533c-4.40906,0.20608 -7.11734,2.9398 -6.93288,7.38702c0.18573,4.45232 3.12934,6.63776 7.55366,6.89727zm137.26222,-129.63096c1.69061,-1.68552 3.05301,-3.49824 2.86602,-6.24851a6.45713,6.45713 0 0 0 -3.99436,-6.39861a6.73698,6.73698 0 0 0 -8.15536,1.3217a147.31809,147.31809 0 0 0 -11.16131,11.15876c-3.98928,4.68638 -7.27508,6.88709 -12.16371,0.80142c-2.87492,-3.57711 -7.22165,-3.50715 -10.56088,-0.01527c-3.13824,3.27945 -2.63068,7.00666 0.26587,10.2047c3.1039,3.42955 6.42023,6.68483 9.80018,9.84724c4.67747,4.37598 7.8577,4.38489 12.53007,-0.15519c6.94687,-6.74716 13.71566,-13.6775 20.5735,-20.51625l-0.00001,0.00001zm-133.8861,-12.497a6.69119,6.69119 0 0 0 -8.20498,0.90318a139.90308,139.90308 0 0 0 -10.81275,10.57234c-4.14319,4.64313 -7.68469,8.27876 -13.23863,1.32551c-2.71337,-3.39902 -6.96469,-2.92071 -10.06222,0.24169c-3.16241,3.22602 -2.83803,6.93288 0.11703,10.15763c3.26418,3.56185 6.78405,6.88963 10.22505,10.28357c4.11394,4.05796 8.14519,3.65599 12.0912,-0.29258q10.24922,-10.26067 20.52007,-20.50099c1.83181,-1.82672 3.40284,-3.76157 3.11789,-6.53091a6.5538,6.5538 0 0 0 -3.75266,-6.15946l0,0.00001z" fill="#2671e5" id="svg_2"/>
  </g>
 </g>

</svg>