<svg width="400" height="283" xmlns="http://www.w3.org/2000/svg" preserveAspectRatio="xMidYMid" version="1.1">

 <g>
  <title>Layer 1</title>
  <g id="svg_1">
   <path id="svg_2" fill="#C63D14" d="m321.59516,139.15383c0,-15.78301 -12.79451,-28.57753 -28.57753,-28.57753c-1.01535,0 -2.01659,0.0543 -3.0037,0.15746l39.25121,-115.76636l-166.80433,0l39.19583,115.66645c-0.57446,-0.03475 -1.15218,-0.05755 -1.73641,-0.05755c-15.78301,0 -28.57753,12.79451 -28.57753,28.57753c0,12.75759 8.36063,23.55833 19.90089,27.23314c-6.09537,10.55748 -13.76426,20.06595 -22.4713,28.27998c-11.83998,11.16995 -25.3903,19.63918 -40.04503,24.85819c-17.44884,-8.96333 -25.68894,-28.89897 -18.25352,-46.37713c0.83943,-1.97315 1.69623,-3.97453 2.51612,-5.96614c12.64031,-2.95049 22.05973,-14.28333 22.05973,-27.8228c0,-15.78301 -12.79451,-28.57753 -28.57753,-28.57753c-15.7841,0 -28.57862,12.79451 -28.57862,28.57753c0,9.67896 4.81613,18.22637 12.17662,23.39652c-7.0738,16.10554 -17.47056,32.95929 -20.70991,52.49313c-3.88223,23.41172 -0.01195,48.26232 20.23536,62.29589c47.15575,32.68237 98.34249,-20.26033 152.3125,-33.56958c19.55882,-4.82373 41.02889,-4.0462 58.26163,-14.02705c12.94112,-7.49514 21.47224,-19.91609 23.89388,-33.8617c2.39123,-13.7762 -1.09571,-27.49268 -9.11427,-38.61485c4.1472,-4.96056 6.64594,-11.34587 6.64594,-18.31759l0,0zm-93.09959,0.10099c0,-0.03366 0.00326,-0.06733 0.00326,-0.10099c0,-10.36419 -5.51873,-19.44045 -13.7762,-24.44988l31.19681,-63.08319l31.25111,63.75213c-7.67432,5.12345 -12.73153,13.86091 -12.73153,23.78094c0,0.2085 0.01195,0.41374 0.01629,0.62116l-35.95973,-0.52016l0,0z"/>
   <path id="svg_3" fill="#FFFFFF" d="m328.57392,139.15383c0,-17.35871 -12.50674,-31.84294 -28.9815,-34.93678l39.40758,-116.22897l-186.27519,0l39.46731,116.46462c-15.90138,3.53907 -27.82932,17.74965 -27.82932,34.70113c0,12.73044 6.72738,23.91234 16.81031,30.19558c-4.8498,7.22474 -10.60092,14.0238 -17.19148,20.24079c-10.45106,9.86031 -22.09557,17.33808 -34.64901,22.25737c-12.64357,-7.94255 -17.98855,-22.9198 -12.43724,-35.96842l0.43437,-1.02078c0.27148,-0.63853 0.54405,-1.27923 0.81554,-1.91994c13.88697,-4.84219 23.88302,-18.06131 23.88302,-33.57936c0,-19.6066 -15.95133,-35.55685 -35.55794,-35.55685c-19.6066,0 -35.55685,15.95025 -35.55685,35.55685c0,9.89615 4.06684,18.8573 10.61287,25.30994c-1.18693,2.53023 -2.43467,5.10173 -3.71716,7.73622c-5.98569,12.2939 -12.76954,26.22865 -15.33561,41.70217c-5.0963,30.73094 3.12316,55.29702 23.14458,69.17313c12.14947,8.42036 24.4868,11.73247 36.90233,11.73138c23.37915,-0.00109 47.02761,-11.7455 70.15807,-23.23472c16.65937,-8.27376 33.88451,-16.82986 50.90006,-21.02592c6.33102,-1.56158 12.84555,-2.50091 19.74234,-3.49563c13.6763,-1.97315 27.81954,-4.01254 40.34692,-11.26769c14.52007,-8.41059 24.46074,-22.51908 27.27115,-38.70715c2.41295,-13.89674 -0.49193,-27.81412 -7.57441,-39.61826c3.30234,-5.39494 5.20924,-11.73247 5.20924,-18.50872l0,0zm-13.95864,0c0,11.90948 -9.68873,21.5993 -21.5993,21.5993c-11.90839,0 -21.59821,-9.68982 -21.59821,-21.5993c0,-11.90948 9.68982,-21.59821 21.59821,-21.59821c11.91056,0 21.5993,9.68873 21.5993,21.59821l0,0zm4.91278,-137.20711l-34.79886,102.6352c-1.50837,0.36162 -2.97873,0.81771 -4.40673,1.36611l-34.37644,-70.12767l-34.47634,69.71284c-1.48991,-0.51365 -3.02325,-0.93608 -4.59569,-1.24883l-34.67941,-102.33766l147.33347,0l0,0zm-119.60841,115.6089c11.90948,0 21.59821,9.68873 21.59821,21.59821c0,11.90948 -9.68873,21.5993 -21.59821,21.5993c-11.90839,0 -21.59821,-9.68982 -21.59821,-21.5993c0,-11.90948 9.68982,-21.59821 21.59821,-21.59821l0,0zm-93.44926,0.20524c11.91056,0 21.5993,9.68873 21.5993,21.59821c0,11.90948 -9.68873,21.5993 -21.5993,21.5993c-11.90839,0 -21.59821,-9.68982 -21.59821,-21.5993c0,-11.90948 9.68982,-21.59821 21.59821,-21.59821l0,0zm210.7153,77.13196c-2.10129,12.10603 -9.57905,22.68198 -20.51444,29.01516c-10.19369,5.90424 -22.4094,7.66672 -35.34292,9.53127c-6.92828,0.99906 -14.0933,2.03287 -21.09216,3.75952c-18.50655,4.56311 -36.43211,13.46671 -53.76693,22.07711c-34.69027,17.23057 -64.6502,32.11008 -92.89869,12.53172c-20.69254,-14.34089 -19.73691,-40.87577 -17.32613,-55.41647c2.23377,-13.47105 8.27376,-25.87789 14.11501,-37.87641c1.01101,-2.07631 1.9927,-4.11027 2.95592,-6.1312c2.89728,1.1587 5.97809,1.94817 9.1892,2.30653c-5.94551,19.62398 3.4055,40.96047 23.03165,51.0434l2.68552,1.38023l2.84516,-1.01318c15.51587,-5.52525 29.81224,-14.39301 42.49382,-26.35679c8.19774,-7.73296 15.24222,-16.28906 21.03461,-25.43157c1.7375,0.26171 3.51518,0.39962 5.32435,0.39962c19.6066,0 35.55794,-15.95025 35.55794,-35.55794c0,-10.54445 -4.61849,-20.02686 -11.93337,-26.54465l22.34642,-45.18803l22.57338,46.04918c-6.77299,6.4787 -11.00489,15.59298 -11.00489,25.68351c0,19.60769 15.95025,35.55794 35.55685,35.55794c7.53315,0 14.52116,-2.36083 20.27662,-6.37228c3.99625,8.18037 5.48507,17.38477 3.89309,26.55334l0,0z"/>
  </g>
 </g>
</svg>