<svg width="400" height="289" xmlns="http://www.w3.org/2000/svg" preserveAspectRatio="xMidYMid" version="1.1">

 <g>
  <title>Layer 1</title>
  <g id="svg_1">
   <path id="svg_2" fill="#539E43" d="m200,288.73188c-3.97516,0 -7.6853,-1.06004 -11.13044,-2.91511l-35.24637,-20.93582c-5.30021,-2.91512 -2.6501,-3.97516 -1.06004,-4.50518c7.15528,-2.38509 8.48033,-2.91511 15.90062,-7.15528c0.79503,-0.53002 1.85507,-0.26501 2.6501,0.26501l27.03106,16.16563c1.06004,0.53003 2.38509,0.53003 3.18012,0l105.73913,-61.21739c1.06004,-0.53002 1.59007,-1.59006 1.59007,-2.91511l0,-122.16977c0,-1.32506 -0.53003,-2.3851 -1.59007,-2.91512l-105.73913,-60.95238c-1.06004,-0.53002 -2.38509,-0.53002 -3.18012,0l-105.73913,60.95238c-1.06004,0.53002 -1.59007,1.85507 -1.59007,2.91512l0,122.16977c0,1.06004 0.53003,2.38509 1.59007,2.91511l28.88612,16.69566c15.63562,7.95031 25.441,-1.32506 25.441,-10.60042l0,-120.57971c0,-1.59006 1.32505,-3.18012 3.18012,-3.18012l13.51553,0c1.59006,0 3.18012,1.32505 3.18012,3.18012l0,120.57971c0,20.93582 -11.39544,33.12629 -31.27122,33.12629c-6.09523,0 -10.86542,0 -24.38095,-6.62525l-27.82609,-15.90062c-6.89026,-3.97516 -11.13043,-11.39545 -11.13043,-19.34576l0,-122.16977c0,-7.95031 4.24017,-15.3706 11.13043,-19.34576l105.73913,-61.21739c6.62526,-3.71015 15.63562,-3.71015 22.26088,0l105.73912,61.21739c6.89027,3.97516 11.13044,11.39545 11.13044,19.34576l0,122.16977c0,7.95031 -4.24017,15.3706 -11.13044,19.34576l-105.73912,61.21739c-3.44514,1.59006 -7.42029,2.38509 -11.13044,2.38509l0,0zm32.59627,-84.00828c-46.37681,0 -55.91718,-21.20083 -55.91718,-39.22153c0,-1.59007 1.32505,-3.18013 3.18012,-3.18013l13.78054,0c1.59006,0 2.91511,1.06004 2.91511,2.65011c2.12009,14.04554 8.21533,20.93581 36.30642,20.93581c22.26087,0 31.80125,-5.03519 31.80125,-16.96066c0,-6.89027 -2.65011,-11.92547 -37.36647,-15.3706c-28.88612,-2.91512 -46.90683,-9.27536 -46.90683,-32.33126c0,-21.46584 18.02071,-34.18634 48.23189,-34.18634c33.92132,0 50.61697,11.66046 52.73706,37.10145c0,0.79503 -0.26501,1.59006 -0.79503,2.38509c-0.53002,0.53002 -1.32506,1.06004 -2.12009,1.06004l-13.78053,0c-1.32505,0 -2.65011,-1.06004 -2.91512,-2.38509c-3.18012,-14.57557 -11.39544,-19.34576 -33.12629,-19.34576c-24.38096,0 -27.29607,8.48034 -27.29607,14.84058c0,7.68531 3.44514,10.0704 36.30642,14.31057c32.59627,4.24016 47.96687,10.3354 47.96687,33.12629c-0.26501,23.32091 -19.34575,36.57143 -53.00207,36.57143l0,0z"/>
  </g>
 </g>
</svg>