<svg width="400" height="360" xmlns="http://www.w3.org/2000/svg" version="1.1" enable-background="new 0 0 841.9 595.3" xml:space="preserve">
 <g>
  <title>Layer 1</title>
  <g id="svg_1">
   <path fill="#61DAFB" d="m398.29998,180.04041c0,-26.27293 -32.90179,-51.17158 -83.34581,-66.61198c11.64093,-51.4141 6.46718,-92.31903 -16.32964,-105.41507c-5.25459,-3.07191 -11.39841,-4.52703 -18.10811,-4.52703l0,18.02727c3.71863,0 6.7097,0.72756 9.21574,2.10183c10.99421,6.3055 15.76376,30.31492 12.04513,61.19571c-0.88924,7.59894 -2.34435,15.60208 -4.12283,23.7669c-15.8446,-3.88031 -33.14431,-6.87138 -51.33326,-8.81154c-10.91337,-14.95536 -22.23094,-28.53644 -33.62935,-40.41989c26.35377,-24.49445 51.09074,-37.91386 67.90542,-37.91386l0,-18.02727c0,0 0,0 0,0c-22.23094,0 -51.33326,15.8446 -80.75894,43.33012c-29.42568,-27.32385 -58.528,-43.00676 -80.75894,-43.00676l0,18.02727c16.73383,0 41.55165,13.33856 67.90542,37.67134c-11.31757,11.88345 -22.63514,25.38369 -33.38683,40.33905c-18.26979,1.94015 -35.5695,4.93123 -51.4141,8.89238c-1.85931,-8.08398 -3.23359,-15.92544 -4.20367,-23.44354c-3.79947,-30.8808 0.88924,-54.89021 11.80261,-61.27655c2.42519,-1.45512 5.57794,-2.10183 9.29657,-2.10183l0,-18.02727c0,0 0,0 0,0c-6.79054,0 -12.93436,1.45512 -18.26979,4.52703c-22.71598,13.09604 -27.80888,53.92013 -16.08712,105.17256c-50.28234,15.52124 -83.02246,40.33905 -83.02246,66.53114c0,26.27293 32.90179,51.17158 83.34581,66.61198c-11.64093,51.4141 -6.46718,92.31903 16.32964,105.41507c5.25459,3.07191 11.39841,4.52703 18.18895,4.52703c22.23094,0 51.33326,-15.8446 80.75894,-43.33012c29.42568,27.32385 58.528,43.00676 80.75894,43.00676c6.79054,0 12.93436,-1.45512 18.26979,-4.52703c22.71598,-13.09604 27.80888,-53.92013 16.08712,-105.17256c50.12066,-15.4404 82.86078,-40.33905 82.86078,-66.53114zm-105.2534,-53.92013c-2.99107,10.42833 -6.7097,21.18002 -10.91337,31.93171c-3.31443,-6.46718 -6.79054,-12.93436 -10.59001,-19.40155c-3.71863,-6.46718 -7.67978,-12.77269 -11.64093,-18.91651c11.47925,1.69764 22.5543,3.79947 33.14431,6.38634zm-37.02462,86.09437c-6.3055,10.91337 -12.77269,21.26086 -19.48239,30.8808c-12.04513,1.05092 -24.25193,1.6168 -36.53958,1.6168c-12.20681,0 -24.41361,-0.56588 -36.3779,-1.53596c-6.7097,-9.61993 -13.25772,-19.88659 -19.56323,-30.71912c-6.14382,-10.59001 -11.72177,-21.3417 -16.81467,-32.17423c5.01207,-10.83253 10.67085,-21.66506 16.73383,-32.25507c6.3055,-10.91337 12.77269,-21.26086 19.48239,-30.8808c12.04513,-1.05092 24.25193,-1.6168 36.53958,-1.6168c12.20681,0 24.41361,0.56588 36.3779,1.53596c6.7097,9.61993 13.25772,19.88659 19.56323,30.71912c6.14382,10.59001 11.72177,21.3417 16.81467,32.17423c-5.09291,10.83253 -10.67085,21.66506 -16.73383,32.25507zm26.11125,-10.50917c4.36535,10.83253 8.08398,21.66506 11.15589,32.17423c-10.59001,2.58687 -21.7459,4.76955 -33.30599,6.46718c3.96115,-6.22466 7.9223,-12.61101 11.64093,-19.15903c3.71863,-6.46718 7.19474,-13.0152 10.50917,-19.48239zm-81.97154,86.25605c-7.5181,-7.76062 -15.0362,-16.41048 -22.47346,-25.86873c7.27558,0.32336 14.71284,0.56588 22.23094,0.56588c7.59894,0 15.11704,-0.16168 22.47346,-0.56588c-7.27558,9.45825 -14.79368,18.10811 -22.23094,25.86873zm-60.1448,-47.61463c-11.47925,-1.69764 -22.5543,-3.79947 -33.14431,-6.38634c2.99107,-10.42833 6.7097,-21.18002 10.91337,-31.93171c3.31443,6.46718 6.79054,12.93436 10.59001,19.40155c3.79947,6.46718 7.67978,12.77269 11.64093,18.91651zm59.7406,-168.22758c7.5181,7.76062 15.0362,16.41048 22.47346,25.86873c-7.27558,-0.32336 -14.71284,-0.56588 -22.23094,-0.56588c-7.59894,0 -15.11704,0.16168 -22.47346,0.56588c7.27558,-9.45825 14.79368,-18.10811 22.23094,-25.86873zm-59.82144,47.61463c-3.96115,6.22466 -7.9223,12.61101 -11.64093,19.15903c-3.71863,6.46718 -7.19474,12.93436 -10.50917,19.40155c-4.36535,-10.83253 -8.08398,-21.66506 -11.15589,-32.17423c10.59001,-2.50603 21.7459,-4.68871 33.30599,-6.38634zm-73.16,101.21141c-28.61728,-12.20681 -47.12959,-28.21308 -47.12959,-40.90493c0,-12.69185 18.51231,-28.77896 47.12959,-40.90493c6.95222,-2.99107 14.55116,-5.65878 22.39262,-8.16482c4.60787,15.8446 10.67085,32.33591 18.18895,49.23143c-7.43726,16.81467 -13.4194,33.22515 -17.94643,48.98891c-8.00314,-2.50603 -15.60208,-5.25459 -22.63514,-8.24566zm43.4918,115.52005c-10.99421,-6.3055 -15.76376,-30.31492 -12.04513,-61.19571c0.88924,-7.59894 2.34435,-15.60208 4.12283,-23.7669c15.8446,3.88031 33.14431,6.87138 51.33326,8.81154c10.91337,14.95536 22.23094,28.53644 33.62935,40.41989c-26.35377,24.49445 -51.09074,37.91386 -67.90542,37.91386c-3.63779,-0.08084 -6.7097,-0.8084 -9.1349,-2.18267zm191.75196,-61.59991c3.79947,30.8808 -0.88924,54.89021 -11.80261,61.27655c-2.42519,1.45512 -5.57794,2.10183 -9.29657,2.10183c-16.73383,0 -41.55165,-13.33856 -67.90542,-37.67134c11.31757,-11.88345 22.63514,-25.38369 33.38683,-40.33905c18.26979,-1.94015 35.5695,-4.93123 51.4141,-8.89238c1.85931,8.16482 3.31443,16.00628 4.20367,23.52438zm31.12332,-53.92013c-6.95222,2.99107 -14.55116,5.65878 -22.39262,8.16482c-4.60787,-15.8446 -10.67085,-32.33591 -18.18895,-49.23143c7.43726,-16.81467 13.4194,-33.22515 17.94643,-48.98891c8.00314,2.50603 15.60208,5.25459 22.71598,8.24566c28.61728,12.20681 47.12959,28.21308 47.12959,40.90493c-0.08084,12.69185 -18.59315,28.77896 -47.21043,40.90493z" id="svg_2"/>
   <polygon fill="#61DAFB" points="118.99852752685547,3.728851318359375 118.99852752685547,3.728851318359375 118.99852752685547,3.728851318359375 " id="svg_3"/>
   <circle fill="#61DAFB" cx="199.91916" cy="180.04041" r="36.94373" id="svg_4"/>
   <polygon fill="#61DAFB" points="280.43560791015625,3.4863319396972656 280.43560791015625,3.4863319396972656 280.43560791015625,3.4863319396972656 " id="svg_5"/>
  </g>
 </g>

</svg>